<svg width="39" height="39" viewBox="0 0 39 39" fill="none" xmlns="http://www.w3.org/2000/svg">
<path opacity="0.9" d="M25.8277 19.2456C25.8277 20.462 25.467 21.6512 24.7912 22.6626C24.1153 23.6741 23.1548 24.4624 22.0309 24.9279C20.9071 25.3934 19.6704 25.5152 18.4773 25.2779C17.2843 25.0406 16.1884 24.4548 15.3282 23.5946C14.468 22.7345 13.8823 21.6386 13.645 20.4455C13.4076 19.2524 13.5294 18.0158 13.9949 16.8919C14.4605 15.7681 15.2488 14.8075 16.2602 14.1317C17.2717 13.4559 18.4608 13.0951 19.6772 13.0951C21.3069 13.1002 22.8683 13.7498 24.0207 14.9022C25.173 16.0545 25.8226 17.616 25.8277 19.2456ZM38.8974 10.7887V27.7025C38.8974 30.5571 37.7635 33.2948 35.7449 35.3133C33.7264 37.3318 30.9887 38.4658 28.1341 38.4658H11.2203C8.36574 38.4658 5.62805 37.3318 3.60953 35.3133C1.59102 33.2948 0.457031 30.5571 0.457031 27.7025V10.7887C0.457031 7.9341 1.59102 5.19641 3.60953 3.17789C5.62805 1.15938 8.36574 0.0253906 11.2203 0.0253906H28.1341C30.9887 0.0253906 33.7264 1.15938 35.7449 3.17789C37.7635 5.19641 38.8974 7.9341 38.8974 10.7887ZM28.9029 19.2456C28.9029 17.4209 28.3619 15.6372 27.3481 14.1201C26.3344 12.6029 24.8935 11.4204 23.2078 10.7222C21.522 10.0239 19.667 9.84119 17.8774 10.1972C16.0878 10.5531 14.4439 11.4318 13.1537 12.722C11.8634 14.0123 10.9848 15.6561 10.6288 17.4458C10.2728 19.2354 10.4555 21.0903 11.1538 22.7761C11.8521 24.4619 13.0346 25.9028 14.5517 26.9165C16.0689 27.9302 17.8526 28.4713 19.6772 28.4713C22.124 28.4713 24.4706 27.4993 26.2008 25.7692C27.9309 24.039 28.9029 21.6924 28.9029 19.2456ZM31.9782 9.25109C31.9782 8.79492 31.8429 8.349 31.5895 7.96971C31.336 7.59042 30.9758 7.2948 30.5544 7.12023C30.1329 6.94566 29.6692 6.89999 29.2218 6.98898C28.7744 7.07798 28.3634 7.29764 28.0409 7.6202C27.7183 7.94276 27.4986 8.35373 27.4096 8.80113C27.3206 9.24853 27.3663 9.71228 27.5409 10.1337C27.7155 10.5552 28.0111 10.9154 28.3904 11.1688C28.7697 11.4222 29.2156 11.5575 29.6717 11.5575C30.2834 11.5575 30.8701 11.3145 31.3026 10.882C31.7352 10.4494 31.9782 9.86279 31.9782 9.25109Z" fill="white"/>
</svg>
