<svg width="91" height="15" viewBox="0 0 91 15" fill="none" xmlns="http://www.w3.org/2000/svg">
<path d="M7.37769 0.814453L8.94928 5.65133H14.0351L9.92058 8.64069L11.4922 13.4776L7.37769 10.4882L3.26319 13.4776L4.83479 8.64069L0.72029 5.65133H5.80609L7.37769 0.814453Z" fill="#F4CE14"/>
<path d="M26.3777 0.814453L27.9493 5.65133H33.0351L28.9206 8.64069L30.4922 13.4776L26.3777 10.4882L22.2632 13.4776L23.8348 8.64069L19.7203 5.65133H24.8061L26.3777 0.814453Z" fill="#F4CE14"/>
<path d="M45.3777 0.814453L46.9493 5.65133H52.0351L47.9206 8.64069L49.4922 13.4776L45.3777 10.4882L41.2632 13.4776L42.8348 8.64069L38.7203 5.65133H43.8061L45.3777 0.814453Z" fill="#F4CE14"/>
<path d="M64.3777 0.814453L65.9493 5.65133H71.0351L66.9206 8.64069L68.4922 13.4776L64.3777 10.4882L60.2632 13.4776L61.8348 8.64069L57.7203 5.65133H62.8061L64.3777 0.814453Z" fill="#F4CE14"/>
<path d="M83.3777 0.814453L84.9493 5.65133H90.0351L85.9206 8.64069L87.4922 13.4776L83.3777 10.4882L79.2632 13.4776L80.8348 8.64069L76.7203 5.65133H81.8061L83.3777 0.814453Z" fill="#F4CE14"/>
<path d="M87.4921 13.4776L83.3776 10.4882V0.814453L84.9492 5.65133H90.035L85.9205 8.64069L87.4921 13.4776Z" fill="#D9D9D9"/>
</svg>
