<svg width="48" height="39" viewBox="0 0 48 39" fill="none" xmlns="http://www.w3.org/2000/svg">
<path opacity="0.9" d="M47.3224 4.94916C45.5813 5.74058 43.7045 6.26066 41.7598 6.50939C43.7497 5.31095 45.2873 3.41154 46.0109 1.12773C44.1341 2.25833 42.0538 3.04975 39.8604 3.50199C38.0741 1.55736 35.5641 0.426758 32.715 0.426758C27.4012 0.426758 23.0597 4.76826 23.0597 10.1273C23.0597 10.8961 23.1502 11.6423 23.3084 12.3433C15.2586 11.9363 8.09055 8.06962 3.31942 2.21311C2.48278 3.63766 2.00792 5.31095 2.00792 7.07469C2.00792 10.4439 3.70382 13.4287 6.32682 15.1246C4.72136 15.1246 3.22897 14.6723 1.91748 13.994V14.0618C1.91748 18.7651 5.26405 22.6996 9.69601 23.5815C8.27309 23.9709 6.77927 24.025 5.33189 23.7397C5.94605 25.6674 7.14885 27.3541 8.77121 28.5627C10.3936 29.7714 12.3539 30.4412 14.3767 30.4781C10.9479 33.1926 6.69765 34.6598 2.32449 34.6387C1.55568 34.6387 0.786875 34.5935 0.0180664 34.5031C4.31435 37.2617 9.42466 38.8672 14.8968 38.8672C32.715 38.8672 42.506 24.0789 42.506 11.2579C42.506 10.8283 42.506 10.4213 42.4834 9.99164C44.3828 8.63492 46.0109 6.9164 47.3224 4.94916Z" fill="white"/>
</svg>
