<svg width="55" height="55" viewBox="0 0 55 55" fill="none" xmlns="http://www.w3.org/2000/svg">
<path fill-rule="evenodd" clip-rule="evenodd" d="M27.1859 3.38745C13.969 3.38745 3.25464 14.1018 3.25464 27.3187C3.25464 32.8103 5.10434 37.8698 8.21469 41.9083C9.77098 38.768 12.0891 36.0505 14.9736 34.0139C16.6829 32.807 18.551 31.8675 20.5136 31.2158C16.9907 28.9966 14.6499 25.0721 14.6499 20.6009C14.6499 13.6774 20.2626 8.0647 27.1861 8.0647C34.1097 8.0647 39.7223 13.6774 39.7223 20.6009C39.7223 25.0721 37.3815 28.9967 33.8585 31.2158C35.8211 31.8675 37.6892 32.807 39.3985 34.0139C42.2829 36.0505 44.601 38.7679 46.1573 41.9081C49.2675 37.8697 51.1172 32.8102 51.1172 27.3187C51.1172 14.1018 40.4028 3.38745 27.1859 3.38745ZM43.9806 44.367C42.6691 41.1945 40.4827 38.4519 37.6681 36.4646C34.615 34.3089 30.9718 33.1471 27.2351 33.137C27.2188 33.1371 27.2025 33.1371 27.1861 33.1371C27.1697 33.1371 27.1534 33.1371 27.137 33.137C23.4003 33.1471 19.7571 34.3088 16.7039 36.4646C13.8893 38.4519 11.7029 41.1946 10.3913 44.3671C14.7116 48.6235 20.642 51.25 27.1859 51.25C33.7299 51.25 39.6604 48.6234 43.9806 44.367ZM27.2326 30.137C32.4779 30.112 36.7223 25.8521 36.7223 20.6009C36.7223 15.3342 32.4528 11.0647 27.1861 11.0647C21.9194 11.0647 17.6499 15.3342 17.6499 20.6009C17.6499 25.8521 21.8943 30.1119 27.1396 30.137C27.1551 30.137 27.1705 30.137 27.186 30.137C27.2016 30.137 27.2171 30.137 27.2326 30.137ZM0.254639 27.3187C0.254639 12.445 12.3122 0.387451 27.1859 0.387451C42.0596 0.387451 54.1172 12.445 54.1172 27.3187C54.1172 42.1925 42.0596 54.25 27.1859 54.25C12.3122 54.25 0.254639 42.1925 0.254639 27.3187Z" fill="#495E57"/>
</svg>
