<svg width="55" height="39" viewBox="0 0 55 39" fill="none" xmlns="http://www.w3.org/2000/svg">
<path opacity="0.9" d="M27.5693 0.540039H27.8737C30.6852 0.5503 44.9306 0.652909 48.7716 1.68583C49.9327 2.00107 50.9908 2.61554 51.8401 3.46782C52.6894 4.3201 53.3001 5.38035 53.6112 6.54261C53.9567 7.84232 54.1995 9.56271 54.3637 11.3378L54.3979 11.6935L54.4731 12.5828L54.5005 12.9385C54.7228 16.0646 54.7502 18.9924 54.7536 19.632V19.8885C54.7502 20.552 54.7194 23.6782 54.4731 26.9343L54.4458 27.2934L54.415 27.6491C54.244 29.6055 53.9909 31.5482 53.6112 32.9779C53.301 34.1406 52.6906 35.2014 51.8412 36.0538C50.9918 36.9062 49.9332 37.5204 48.7716 37.8347C44.804 38.9018 29.7241 38.977 27.6343 38.9805H27.1486C26.0917 38.9805 21.7206 38.9599 17.1375 38.8026L16.556 38.7821L16.2585 38.7684L15.6736 38.7445L15.0887 38.7205C11.2922 38.5529 7.67702 38.2827 6.01135 37.8312C4.85013 37.5172 3.79181 36.9036 2.94242 36.0518C2.09303 35.2 1.48239 34.14 1.17166 32.9779C0.792015 31.5516 0.538915 29.6055 0.367901 27.6491L0.340539 27.29L0.313177 26.9343C0.144378 24.6167 0.0508418 22.2942 0.0327148 19.9706L0.0327148 19.5499C0.0395554 18.8145 0.0669175 16.2733 0.251612 13.4687L0.275554 13.1164L0.285815 12.9385L0.313177 12.5828L0.388423 11.6935L0.422626 11.3378C0.586799 9.56271 0.829638 7.8389 1.17508 6.54261C1.48528 5.37988 2.09569 4.31913 2.94512 3.4667C3.79455 2.61427 4.85314 2.00013 6.01477 1.68583C7.68044 1.24119 11.2957 0.967573 15.0922 0.796559L15.6736 0.772617L16.2619 0.752096L16.556 0.741835L17.1409 0.717894C20.396 0.613146 23.6524 0.554995 26.9092 0.543459H27.5693V0.540039ZM21.9224 11.5191V27.998L36.1405 19.762L21.9224 11.5191Z" fill="white"/>
</svg>
